<?xml version="1.0" encoding="utf-8"?>
<svg width="1394" height="900" viewBox="0 0 1394 900" fill="none" xmlns="http://www.w3.org/2000/svg" xmlns:bx="https://boxy-svg.com">
  <g filter="url(#filter0_f_0_1)" transform="matrix(1.172778, 0, 0, 1.118802, -261.098511, -79.980766)" style="">
    <circle opacity="0.3" cx="1283" cy="101" r="3" fill="white"/>
    <circle opacity="0.3" cx="1026" cy="514" r="3" fill="white"/>
    <circle opacity="0.3" cx="1322" cy="605" r="3" fill="white"/>
    <circle opacity="0.3" cx="1231" cy="551" r="3" fill="white"/>
    <circle opacity="0.3" cx="1387" cy="836" r="3" fill="white"/>
    <circle opacity="0.3" cx="1205" cy="699" r="3" fill="white"/>
    <circle opacity="0.3" cx="635" cy="814" r="3" fill="white"/>
    <circle opacity="0.3" cx="1328" cy="388" r="3" fill="white"/>
    <circle opacity="0.3" cx="1137" cy="767" r="3" fill="white"/>
    <circle opacity="0.3" cx="1161" cy="388" r="3" fill="white"/>
    <circle opacity="0.3" cx="970" cy="767" r="3" fill="white"/>
    <circle opacity="0.3" cx="1181" cy="130" r="3" fill="white"/>
    <circle opacity="0.3" cx="914" cy="646" r="3" fill="white"/>
    <circle opacity="0.3" cx="1207" cy="240" r="3" fill="white"/>
    <circle opacity="0.3" cx="1067" cy="674" r="3" fill="white"/>
    <circle opacity="0.3" r="1.5" transform="matrix(-1.19249e-08 1 1 1.19249e-08 739.5 437.5)" fill="white"/>
    <circle opacity="0.3" r="1.5" transform="matrix(-1.19249e-08 1 1 1.19249e-08 454.5 256.5)" fill="white"/>
    <circle opacity="0.3" r="2.90227" transform="matrix(0.376454 0.926435 0.926435 -0.376454 259.181 792.811)" fill="white"/>
    <circle opacity="0.3" r="1.5" transform="matrix(-1.19249e-08 1 1 1.19249e-08 975.5 272.5)" fill="white"/>
    <circle opacity="0.3" r="1.5" transform="matrix(-1.19249e-08 1 1 1.19249e-08 411.5 679.5)" fill="white"/>
    <circle opacity="0.3" r="2.90227" transform="matrix(0.376454 0.926435 0.926435 -0.376454 526.977 485.587)" fill="white"/>
    <ellipse opacity="0.3" rx="1.5" ry="1" transform="matrix(-1.19249e-08 1 1 1.19249e-08 1052 402.5)" fill="white"/>
    <ellipse opacity="0.3" rx="1.5" ry="1" transform="matrix(-1.19249e-08 1 1 1.19249e-08 488 809.5)" fill="white"/>
    <ellipse opacity="0.3" rx="2.90227" ry="1.93485" transform="matrix(0.376454 0.926435 0.926435 -0.376454 758.794 662.892)" fill="white"/>
    <circle opacity="0.3" r="1.5" transform="matrix(-1.19249e-08 1 1 1.19249e-08 1080.5 307.5)" fill="white"/>
    <circle opacity="0.3" r="1.5" transform="matrix(-1.19249e-08 1 1 1.19249e-08 424.5 392.5)" fill="white"/>
    <circle opacity="0.3" r="2.90227" transform="matrix(0.376454 0.926435 0.926435 -0.376454 660.781 504.781)" fill="white"/>
    <circle opacity="0.3" r="1.5" transform="matrix(-1.19249e-08 1 1 1.19249e-08 930.5 389.5)" fill="white"/>
    <circle opacity="0.3" r="1.5" transform="matrix(-1.19249e-08 1 1 1.19249e-08 366.5 796.5)" fill="white"/>
    <circle opacity="0.3" r="2.90227" transform="matrix(0.376454 0.926435 0.926435 -0.376454 531.535 728.088)" fill="white"/>
    <circle opacity="0.3" r="1.5" transform="matrix(-1.19249e-08 1 1 1.19249e-08 1253.5 449.5)" fill="white"/>
    <circle opacity="0.3" r="1.5" transform="matrix(-1.19249e-08 1 1 1.19249e-08 689.5 856.5)" fill="white"/>
    <circle opacity="0.3" r="2.90227" transform="matrix(0.376454 0.926435 0.926435 -0.376454 1154.22 600.371)" fill="white"/>
    <circle opacity="0.3" r="1.5" transform="matrix(-1.19249e-08 1 1 1.19249e-08 930.5 306.5)" fill="white"/>
    <circle opacity="0.3" r="1.5" transform="matrix(-1.19249e-08 1 1 1.19249e-08 340.5 510.5)" fill="white"/>
    <circle opacity="0.3" r="2.90227" transform="matrix(0.376454 0.926435 0.926435 -0.376454 471.079 579.309)" fill="white"/>
    <circle opacity="0.3" r="1.5" transform="matrix(-1.19249e-08 1 1 1.19249e-08 1118.5 211.5)" fill="white"/>
    <circle opacity="0.3" r="1.5" transform="matrix(-1.19249e-08 1 1 1.19249e-08 580.5 626.5)" fill="white"/>
    <circle opacity="0.3" r="2.90227" transform="matrix(0.376454 0.926435 0.926435 -0.376454 738.875 272.085)" fill="white"/>
    <circle opacity="0.3" r="1.5" transform="matrix(-1.19249e-08 1 1 1.19249e-08 840.5 303.5)" fill="white"/>
    <circle opacity="0.3" r="1.5" transform="matrix(-1.19249e-08 1 1 1.19249e-08 276.5 710.5)" fill="white"/>
    <circle opacity="0.3" r="2.90227" transform="matrix(0.376454 0.926435 0.926435 -0.376454 280.781 287.781)" fill="white"/>
    <circle opacity="0.3" r="1.5" transform="matrix(-1.19249e-08 1 1 1.19249e-08 1028.5 208.5)" fill="white"/>
    <circle opacity="0.3" r="1.5" transform="matrix(-1.19249e-08 1 1 1.19249e-08 454.5 434.5)" fill="white"/>
    <circle opacity="0.3" r="2.90227" transform="matrix(0.376454 0.926435 0.926435 -0.376454 575.364 332.262)" fill="white"/>
    <circle opacity="0.3" r="1.5" transform="matrix(-1.19249e-08 1 1 1.19249e-08 883.5 354.5)" fill="white"/>
    <circle opacity="0.3" r="1.5" transform="matrix(-1.19249e-08 1 1 1.19249e-08 264.5 475.5)" fill="white"/>
    <circle opacity="0.3" r="2.90227" transform="matrix(0.376454 0.926435 0.926435 -0.376454 421.793 699.584)" fill="white"/>
    <circle opacity="0.3" r="1.5" transform="matrix(-1.19249e-08 1 1 1.19249e-08 1298.5 205.5)" fill="white"/>
    <circle opacity="0.3" r="1.5" transform="matrix(-1.19249e-08 1 1 1.19249e-08 812.5 513.5)" fill="white"/>
    <circle opacity="0.3" r="2.90227" transform="matrix(0.376454 0.926435 0.926435 -0.376454 1057.16 130.221)" fill="white"/>
  </g>
  <defs>
    <filter id="filter0_f_0_1" x="252.278" y="94" width="1141.72" height="768" filterUnits="userSpaceOnUse" color-interpolation-filters="sRGB">
      <feFlood flood-opacity="0" result="BackgroundImageFix"/>
      <feBlend mode="normal" in="SourceGraphic" in2="BackgroundImageFix" result="shape"/>
      <feGaussianBlur stdDeviation="2" result="effect1_foregroundBlur_0_1"/>
    </filter>
    <filter id="filter1_d_0_1" x="-1410" y="-439" width="1778" height="1778" filterUnits="userSpaceOnUse" color-interpolation-filters="sRGB">
      <feFlood flood-opacity="0" result="BackgroundImageFix"/>
      <feColorMatrix in="SourceAlpha" type="matrix" values="0 0 0 0 0 0 0 0 0 0 0 0 0 0 0 0 0 0 127 0" result="hardAlpha"/>
      <feOffset/>
      <feGaussianBlur stdDeviation="125"/>
      <feComposite in2="hardAlpha" operator="out"/>
      <feColorMatrix type="matrix" values="0 0 0 0 1 0 0 0 0 0.815257 0 0 0 0 0.1625 0 0 0 0.2 0"/>
      <feBlend mode="normal" in2="BackgroundImageFix" result="effect1_dropShadow_0_1"/>
      <feBlend mode="normal" in="SourceGraphic" in2="effect1_dropShadow_0_1" result="shape"/>
    </filter>
    <linearGradient id="gradient-1" bx:pinned="true"/>
    <filter id="filter0_f_3_137" x="0.277832" y="0" width="1141.72" height="768" filterUnits="userSpaceOnUse" color-interpolation-filters="sRGB">
      <feFlood flood-opacity="0" result="BackgroundImageFix"/>
      <feBlend mode="normal" in="SourceGraphic" in2="BackgroundImageFix" result="shape"/>
      <feGaussianBlur stdDeviation="2" result="effect1_foregroundBlur_3_137"/>
    </filter>
  </defs>
  <g filter="url(#filter0_f_3_137)" transform="matrix(0.99999, 0.004486, -0.004486, 0.99999, 149.816681, 63.456665)">
    <circle opacity="0.3" cx="1031" cy="7" r="3" fill="white"/>
    <circle opacity="0.3" cx="774" cy="420" r="3" fill="white"/>
    <circle opacity="0.3" cx="1070" cy="511" r="3" fill="white"/>
    <circle opacity="0.3" cx="979" cy="457" r="3" fill="white"/>
    <circle opacity="0.3" cx="1135" cy="742" r="3" fill="white"/>
    <circle opacity="0.3" cx="953" cy="605" r="3" fill="white"/>
    <circle opacity="0.3" cx="383" cy="720" r="3" fill="white"/>
    <circle opacity="0.3" cx="1076" cy="294" r="3" fill="white"/>
    <circle opacity="0.3" cx="885" cy="673" r="3" fill="white"/>
    <circle opacity="0.3" cx="909" cy="294" r="3" fill="white"/>
    <circle opacity="0.3" cx="718" cy="673" r="3" fill="white"/>
    <circle opacity="0.3" cx="929" cy="36" r="3" fill="white"/>
    <circle opacity="0.3" cx="662" cy="552" r="3" fill="white"/>
    <circle opacity="0.3" cx="955" cy="146" r="3" fill="white"/>
    <circle opacity="0.3" cx="815" cy="580" r="3" fill="white"/>
    <circle opacity="0.3" r="1.5" transform="matrix(-1.19249e-08 1 1 1.19249e-08 487.5 343.5)" fill="white"/>
    <circle opacity="0.3" r="1.5" transform="matrix(-1.19249e-08 1 1 1.19249e-08 202.5 162.5)" fill="white"/>
    <circle opacity="0.3" r="2.90227" transform="matrix(0.376454 0.926435 0.926435 -0.376454 7.18087 698.811)" fill="white"/>
    <circle opacity="0.3" r="1.5" transform="matrix(-1.19249e-08 1 1 1.19249e-08 723.5 178.5)" fill="white"/>
    <circle opacity="0.3" r="1.5" transform="matrix(-1.19249e-08 1 1 1.19249e-08 159.5 585.5)" fill="white"/>
    <circle opacity="0.3" r="2.90227" transform="matrix(0.376454 0.926435 0.926435 -0.376454 274.977 391.587)" fill="white"/>
    <ellipse opacity="0.3" rx="1.5" ry="1" transform="matrix(-1.19249e-08 1 1 1.19249e-08 800 308.5)" fill="white"/>
    <ellipse opacity="0.3" rx="1.5" ry="1" transform="matrix(-1.19249e-08 1 1 1.19249e-08 236 715.5)" fill="white"/>
    <ellipse opacity="0.3" rx="2.90227" ry="1.93485" transform="matrix(0.376454 0.926435 0.926435 -0.376454 506.794 568.892)" fill="white"/>
    <circle opacity="0.3" r="1.5" transform="matrix(-1.19249e-08 1 1 1.19249e-08 828.5 213.5)" fill="white"/>
    <circle opacity="0.3" r="1.5" transform="matrix(-1.19249e-08 1 1 1.19249e-08 172.5 298.5)" fill="white"/>
    <circle opacity="0.3" r="2.90227" transform="matrix(0.376454 0.926435 0.926435 -0.376454 408.781 410.781)" fill="white"/>
    <circle opacity="0.3" r="1.5" transform="matrix(-1.19249e-08 1 1 1.19249e-08 678.5 295.5)" fill="white"/>
    <circle opacity="0.3" r="1.5" transform="matrix(-1.19249e-08 1 1 1.19249e-08 114.5 702.5)" fill="white"/>
    <circle opacity="0.3" r="2.90227" transform="matrix(0.376454 0.926435 0.926435 -0.376454 279.535 634.088)" fill="white"/>
    <circle opacity="0.3" r="1.5" transform="matrix(-1.19249e-08 1 1 1.19249e-08 1001.5 355.5)" fill="white"/>
    <circle opacity="0.3" r="1.5" transform="matrix(-1.19249e-08 1 1 1.19249e-08 437.5 762.5)" fill="white"/>
    <circle opacity="0.3" r="2.90227" transform="matrix(0.376454 0.926435 0.926435 -0.376454 902.219 506.371)" fill="white"/>
    <circle opacity="0.3" r="1.5" transform="matrix(-1.19249e-08 1 1 1.19249e-08 678.5 212.5)" fill="white"/>
    <circle opacity="0.3" r="1.5" transform="matrix(-1.19249e-08 1 1 1.19249e-08 88.5 416.5)" fill="white"/>
    <circle opacity="0.3" r="2.90227" transform="matrix(0.376454 0.926435 0.926435 -0.376454 219.079 485.309)" fill="white"/>
    <circle opacity="0.3" r="1.5" transform="matrix(-1.19249e-08 1 1 1.19249e-08 866.5 117.5)" fill="white"/>
    <circle opacity="0.3" r="1.5" transform="matrix(-1.19249e-08 1 1 1.19249e-08 328.5 532.5)" fill="white"/>
    <circle opacity="0.3" r="2.90227" transform="matrix(0.376454 0.926435 0.926435 -0.376454 486.875 178.085)" fill="white"/>
    <circle opacity="0.3" r="1.5" transform="matrix(-1.19249e-08 1 1 1.19249e-08 588.5 209.5)" fill="white"/>
    <circle opacity="0.3" r="1.5" transform="matrix(-1.19249e-08 1 1 1.19249e-08 24.5 616.5)" fill="white"/>
    <circle opacity="0.3" r="2.90227" transform="matrix(0.376454 0.926435 0.926435 -0.376454 28.7813 193.781)" fill="white"/>
    <circle opacity="0.3" r="1.5" transform="matrix(-1.19249e-08 1 1 1.19249e-08 776.5 114.5)" fill="white"/>
    <circle opacity="0.3" r="1.5" transform="matrix(-1.19249e-08 1 1 1.19249e-08 202.5 340.5)" fill="white"/>
    <circle opacity="0.3" r="2.90227" transform="matrix(0.376454 0.926435 0.926435 -0.376454 323.364 238.262)" fill="white"/>
    <circle opacity="0.3" r="1.5" transform="matrix(-1.19249e-08 1 1 1.19249e-08 631.5 260.5)" fill="white"/>
    <circle opacity="0.3" r="1.5" transform="matrix(-1.19249e-08 1 1 1.19249e-08 12.5 381.5)" fill="white"/>
    <circle opacity="0.3" r="2.90227" transform="matrix(0.376454 0.926435 0.926435 -0.376454 169.793 605.584)" fill="white"/>
    <circle opacity="0.3" r="1.5" transform="matrix(-1.19249e-08 1 1 1.19249e-08 1046.5 111.5)" fill="white"/>
    <circle opacity="0.3" r="1.5" transform="matrix(-1.19249e-08 1 1 1.19249e-08 560.5 419.5)" fill="white"/>
    <circle opacity="0.3" r="2.90227" transform="matrix(0.376454 0.926435 0.926435 -0.376454 805.157 36.2214)" fill="white"/>
  </g>
  <circle opacity="0.3" r="2.902" transform="matrix(0.441497, 1.036497, 1.086502, -0.421178, 600.393433, 353.858673)" fill="white" style=""/>
  <circle cx="-511" cy="448" r="702" fill="#428ED5" fill-opacity="0.06"/>
  <circle cx="-529" cy="448" r="670" fill="#428ED5" fill-opacity="0.1"/>
  <g filter="url(#filter1_d_0_1)" transform="matrix(1, 0, 0, 1, 5, 0)">
    <circle cx="-548" cy="450" r="639" style="fill: rgb(30, 142, 218);"/>
  </g>
</svg>