<?xml version="1.0" encoding="utf-8"?>
<svg width="2000" height="1200" viewBox="0 0 1800 900" fill="none" xmlns="http://www.w3.org/2000/svg" xmlns:bx="https://boxy-svg.com">
  <g filter="url(#filter0_f_0_1)" transform="matrix(1.383483, 0, 0, 1.118802, -150.615799, -79.980766)" style="">
    <circle opacity="0.3" cx="1283" cy="101" r="3" fill="white"/>
    <circle opacity="0.3" cx="1026" cy="514" r="3" fill="white"/>
    <circle opacity="0.3" cx="1322" cy="605" r="3" fill="white"/>
    <circle opacity="0.3" cx="1231" cy="551" r="3" fill="white"/>
    <circle opacity="0.3" cx="1387" cy="836" r="3" fill="white"/>
    <circle opacity="0.3" cx="1205" cy="699" r="3" fill="white"/>
    <circle opacity="0.3" cx="635" cy="814" r="3" fill="white"/>
    <circle opacity="0.3" cx="1328" cy="388" r="3" fill="white"/>
    <circle opacity="0.3" cx="1137" cy="767" r="3" fill="white"/>
    <circle opacity="0.3" cx="1161" cy="388" r="3" fill="white"/>
    <circle opacity="0.3" cx="970" cy="767" r="3" fill="white"/>
    <circle opacity="0.3" cx="1181" cy="130" r="3" fill="white"/>
    <circle opacity="0.3" cx="914" cy="646" r="3" fill="white"/>
    <circle opacity="0.3" cx="1207" cy="240" r="3" fill="white"/>
    <circle opacity="0.3" cx="1067" cy="674" r="3" fill="white"/>
    <circle opacity="0.3" r="1.5" transform="matrix(-1.19249e-08 1 1 1.19249e-08 739.5 437.5)" fill="white"/>
    <circle opacity="0.3" r="1.5" transform="matrix(-1.19249e-08 1 1 1.19249e-08 454.5 256.5)" fill="white"/>
    <circle opacity="0.3" r="2.90227" transform="matrix(0.376454 0.926435 0.926435 -0.376454 259.181 792.811)" fill="white"/>
    <circle opacity="0.3" r="1.5" transform="matrix(-1.19249e-08 1 1 1.19249e-08 975.5 272.5)" fill="white"/>
    <circle opacity="0.3" r="1.5" transform="matrix(-1.19249e-08 1 1 1.19249e-08 411.5 679.5)" fill="white"/>
    <circle opacity="0.3" r="2.90227" transform="matrix(0.376454 0.926435 0.926435 -0.376454 526.977 485.587)" fill="white"/>
    <ellipse opacity="0.3" rx="1.5" ry="1" transform="matrix(-1.19249e-08 1 1 1.19249e-08 1052 402.5)" fill="white"/>
    <ellipse opacity="0.3" rx="1.5" ry="1" transform="matrix(-1.19249e-08 1 1 1.19249e-08 488 809.5)" fill="white"/>
    <ellipse opacity="0.3" rx="2.90227" ry="1.93485" transform="matrix(0.376454 0.926435 0.926435 -0.376454 758.794 662.892)" fill="white"/>
    <circle opacity="0.3" r="1.5" transform="matrix(-1.19249e-08 1 1 1.19249e-08 1080.5 307.5)" fill="white"/>
    <circle opacity="0.3" r="1.5" transform="matrix(-1.19249e-08 1 1 1.19249e-08 424.5 392.5)" fill="white"/>
    <circle opacity="0.3" r="2.90227" transform="matrix(0.376454 0.926435 0.926435 -0.376454 660.781 504.781)" fill="white"/>
    <circle opacity="0.3" r="1.5" transform="matrix(-1.19249e-08 1 1 1.19249e-08 930.5 389.5)" fill="white"/>
    <circle opacity="0.3" r="1.5" transform="matrix(-1.19249e-08 1 1 1.19249e-08 366.5 796.5)" fill="white"/>
    <circle opacity="0.3" r="2.90227" transform="matrix(0.376454 0.926435 0.926435 -0.376454 531.535 728.088)" fill="white"/>
    <circle opacity="0.3" r="1.5" transform="matrix(-1.19249e-08 1 1 1.19249e-08 1253.5 449.5)" fill="white"/>
    <circle opacity="0.3" r="1.5" transform="matrix(-1.19249e-08 1 1 1.19249e-08 689.5 856.5)" fill="white"/>
    <circle opacity="0.3" r="2.90227" transform="matrix(0.376454 0.926435 0.926435 -0.376454 1154.22 600.371)" fill="white"/>
    <circle opacity="0.3" r="1.5" transform="matrix(-1.19249e-08 1 1 1.19249e-08 930.5 306.5)" fill="white"/>
    <circle opacity="0.3" r="1.5" transform="matrix(-1.19249e-08 1 1 1.19249e-08 340.5 510.5)" fill="white"/>
    <circle opacity="0.3" r="2.90227" transform="matrix(0.376454 0.926435 0.926435 -0.376454 471.079 579.309)" fill="white"/>
    <circle opacity="0.3" r="1.5" transform="matrix(-1.19249e-08 1 1 1.19249e-08 1118.5 211.5)" fill="white"/>
    <circle opacity="0.3" r="1.5" transform="matrix(-1.19249e-08 1 1 1.19249e-08 580.5 626.5)" fill="white"/>
    <circle opacity="0.3" r="2.90227" transform="matrix(0.376454 0.926435 0.926435 -0.376454 738.875 272.085)" fill="white"/>
    <circle opacity="0.3" r="1.5" transform="matrix(-1.19249e-08 1 1 1.19249e-08 840.5 303.5)" fill="white"/>
    <circle opacity="0.3" r="1.5" transform="matrix(-1.19249e-08 1 1 1.19249e-08 276.5 710.5)" fill="white"/>
    <circle opacity="0.3" r="2.90227" transform="matrix(0.376454 0.926435 0.926435 -0.376454 280.781 287.781)" fill="white"/>
    <circle opacity="0.3" r="1.5" transform="matrix(-1.19249e-08 1 1 1.19249e-08 1028.5 208.5)" fill="white"/>
    <circle opacity="0.3" r="1.5" transform="matrix(-1.19249e-08 1 1 1.19249e-08 454.5 434.5)" fill="white"/>
    <circle opacity="0.3" r="2.90227" transform="matrix(0.376454 0.926435 0.926435 -0.376454 575.364 332.262)" fill="white"/>
    <circle opacity="0.3" r="1.5" transform="matrix(-1.19249e-08 1 1 1.19249e-08 883.5 354.5)" fill="white"/>
    <circle opacity="0.3" r="1.5" transform="matrix(-1.19249e-08 1 1 1.19249e-08 264.5 475.5)" fill="white"/>
    <circle opacity="0.3" r="2.90227" transform="matrix(0.376454 0.926435 0.926435 -0.376454 421.793 699.584)" fill="white"/>
    <circle opacity="0.3" r="1.5" transform="matrix(-1.19249e-08 1 1 1.19249e-08 1298.5 205.5)" fill="white"/>
    <circle opacity="0.3" r="1.5" transform="matrix(-1.19249e-08 1 1 1.19249e-08 812.5 513.5)" fill="white"/>
    <circle opacity="0.3" r="2.90227" transform="matrix(0.376454 0.926435 0.926435 -0.376454 1057.16 130.221)" fill="white"/>
  </g>
  <defs>
    <filter id="filter0_f_0_1" x="252.278" y="94" width="1141.72" height="768" filterUnits="userSpaceOnUse" color-interpolation-filters="sRGB">
      <feFlood flood-opacity="0" result="BackgroundImageFix"/>
      <feBlend mode="normal" in="SourceGraphic" in2="BackgroundImageFix" result="shape"/>
      <feGaussianBlur stdDeviation="2" result="effect1_foregroundBlur_0_1"/>
    </filter>
    <filter id="filter1_d_0_1" x="-1410" y="-439" width="1778" height="1778" filterUnits="userSpaceOnUse" color-interpolation-filters="sRGB">
      <feFlood flood-opacity="0" result="BackgroundImageFix"/>
      <feColorMatrix in="SourceAlpha" type="matrix" values="0 0 0 0 0 0 0 0 0 0 0 0 0 0 0 0 0 0 127 0" result="hardAlpha"/>
      <feOffset/>
      <feGaussianBlur stdDeviation="125"/>
      <feComposite in2="hardAlpha" operator="out"/>
      <feColorMatrix type="matrix" values="0 0 0 0 1 0 0 0 0 0.815257 0 0 0 0 0.1625 0 0 0 0.2 0"/>
      <feBlend mode="normal" in2="BackgroundImageFix" result="effect1_dropShadow_0_1"/>
      <feBlend mode="normal" in="SourceGraphic" in2="effect1_dropShadow_0_1" result="shape"/>
    </filter>
    <linearGradient id="gradient-1" bx:pinned="true"/>
  </defs>
  <circle cx="-419" cy="448" r="702" fill="#428ED5" fill-opacity="0.06"/>
  <circle cx="-437" cy="448" r="670" fill="#428ED5" fill-opacity="0.1"/>
  <g filter="url(#filter1_d_0_1)" transform="matrix(1, 0, 0, 1, 97, 0)">
    <circle cx="-548" cy="450" r="639" style="fill: rgb(30, 142, 218);"/>
  </g>
</svg>